<svg width="114" height="114" viewBox="0 0 114 114" fill="none" xmlns="http://www.w3.org/2000/svg">
<g opacity="0.5">
<path fill-rule="evenodd" clip-rule="evenodd" d="M2.58618 9.26803C2.58338 14.9463 2.29629 20.7422 3.34276 26.3523C3.65964 28.0507 3.90951 31.3039 5.7014 32.1853C7.5012 33.0704 9.2461 32.0759 9.69326 30.2311C10.2149 28.0845 9.07068 24.8721 8.95482 22.6185C8.79569 19.5401 8.78498 16.4579 8.78359 13.3757C8.78266 11.15 9.51505 7.56916 6.88747 6.42406C4.93365 5.5723 2.58618 7.15579 2.58618 9.26803Z" fill="#C1DEE2"/>
<path fill-rule="evenodd" clip-rule="evenodd" d="M92.3535 0.287092C73.5407 2.17551 54.4571 2.56802 35.5764 3.55277C26.8486 4.00785 16.3011 3.42719 8.07865 6.80548C6.55244 7.43295 1.0837 10.9248 5.52318 12.3465C6.907 12.79 8.31269 11.2992 9.44897 10.7997C11.3414 9.96875 13.532 9.71156 15.5501 9.38717C32.7064 6.63216 50.6514 7.1118 67.984 5.82443C72.4254 5.49448 76.8686 5.1548 81.3006 4.71873C84.467 4.40731 91.1223 2.12499 94.0444 3.29234C99.0376 5.28687 98.9208 18.2467 99.0195 22.7038C99.0707 25.0089 96.8335 33.2831 101.281 32.4444C104.84 31.7729 103.552 23.177 103.274 20.8256C102.546 14.6622 101.305 -0.619811 92.3535 0.287092Z" fill="#C1DEE2"/>
<path fill-rule="evenodd" clip-rule="evenodd" d="M99.2912 32.1455C82.9501 33.621 66.2326 32.1733 49.8245 32.7535C41.2238 33.0584 32.6319 33.5427 24.0302 33.8268C20.3101 33.9501 16.5863 33.9552 12.8643 33.9816C11.084 33.9936 2.98259 35.0729 7.9944 38.6023C10.2134 40.1649 17.2852 38.9063 19.8313 38.8757C23.6557 38.8307 27.4782 38.6718 31.2997 38.5221C40.1522 38.1759 48.999 37.6963 57.8561 37.4567C66.3284 37.2273 74.8049 37.1782 83.2767 36.9488C87.4924 36.8343 91.7653 36.7051 95.9433 36.0896C96.886 35.9506 99.9482 35.8403 100.603 34.7888C101.222 33.7948 100.787 32.0014 99.2912 32.1455Z" fill="#89C5CC"/>
<path fill-rule="evenodd" clip-rule="evenodd" d="M18.9787 19.8768C18.8907 20.0849 18.8907 20.0849 18.9787 19.8768V19.8768ZM26.0551 17.7261C26.3133 17.8354 26.3133 17.8354 26.0551 17.7261V17.7261ZM25.7238 17.6663C29.5374 21.5534 23.6727 26.1931 20.1005 22.3996C16.3087 18.3735 23.2688 17.6793 25.7238 17.6663ZM21.6793 11.7856C8.54372 14.123 13.1945 31.6294 25.4627 29.0992C30.8486 27.9889 33.929 22.5627 32.0752 17.3507C31.3507 15.3145 29.7724 13.0794 27.5738 12.4376C26.4775 12.1178 25.5079 12.6211 24.4637 12.5034C23.4679 12.3913 22.9152 11.5627 21.6793 11.7856Z" fill="#C1DEE2"/>
<path fill-rule="evenodd" clip-rule="evenodd" d="M71.9504 16.713C64.0295 16.738 56.1068 17.0745 48.1873 17.2246C45.7579 17.2705 39.5144 16.1833 39.5047 20.013C39.4939 24.1049 46.4489 22.5937 48.7633 22.5386C56.6191 22.3509 64.4948 22.0066 72.3194 21.2586C74.2956 21.0696 81.1379 21.3958 81.1309 18.708C81.1235 15.8603 73.5464 16.713 71.9504 16.713Z" fill="#C1DEE2"/>
<path fill-rule="evenodd" clip-rule="evenodd" d="M90.8689 43.4214C71.2786 43.9469 51.718 44.1299 32.1435 45.1328C24.8219 45.5077 17.5101 45.7866 10.1778 45.7866C8.76563 45.7866 5.92214 45.2398 4.59323 46.1291C0.986177 48.5412 5.09343 50.6117 7.44416 50.7419C23.5247 51.6345 39.8378 49.4133 55.909 48.9119C65.3175 48.6186 74.7284 48.5319 84.1313 48.0532C86.6965 47.9225 89.2622 47.771 91.8232 47.5722C93.2959 47.4582 97.191 47.771 98.3813 46.9095C103.579 43.1475 92.6212 43.3741 90.8689 43.4214Z" fill="#89C5CC"/>
<path fill-rule="evenodd" clip-rule="evenodd" d="M0.985602 53.0001C0.801341 58.0791 0.782263 63.0697 1.44672 68.1209C1.70822 70.1085 1.82827 72.3639 4.15806 72.869C6.27381 73.3273 7.3468 71.7272 7.78512 69.9528C8.85486 65.6198 7.91354 59.3837 7.90098 54.8825C7.8954 52.6572 7.89307 50.1663 5.14311 49.6631C3.04505 49.2789 1.06563 50.7952 0.985602 53.0001Z" fill="#89C5CC"/>
<path fill-rule="evenodd" clip-rule="evenodd" d="M111.634 65.2447C79.9221 66.9158 48.252 68.3746 16.5176 69.7162C14.0427 69.821 -5.18332 69.6115 1.53803 76.3162C3.61423 78.3867 8.96292 76.9844 11.6477 76.8528C15.6824 76.6545 19.7189 76.5029 23.7536 76.2976C39.7504 75.4834 55.7885 75.2638 71.7732 74.3499C80.5698 73.8471 89.3464 73.0602 98.097 72.0356C102.259 71.5486 107.426 71.5991 111.324 69.9679C113.33 69.1286 115.494 65.0399 111.634 65.2447Z" fill="#89C5CC"/>
<path fill-rule="evenodd" clip-rule="evenodd" d="M93.3998 39.4796C90.9882 41.8815 92.2282 46.6199 92.4101 49.5886C92.66 53.674 92.9638 57.7618 93.4738 61.8246C93.8056 64.4637 93.6302 68.5714 95.0382 70.8509C96.6868 73.5207 100.317 73.2255 101.808 70.6461C103.127 68.3652 102.459 63.5656 102.425 61.0377C102.378 57.5421 102.16 54.041 101.953 50.5525C101.779 47.6367 102.44 42.964 100.836 40.4686C99.2064 37.9328 95.6598 37.2321 93.3998 39.4796Z" fill="#89C5CC"/>
<path fill-rule="evenodd" clip-rule="evenodd" d="M20.9167 58.1189C20.6338 58.3367 20.6338 58.3367 20.9167 58.1189V58.1189ZM26.5493 57.4131C31.8049 58.4701 23.3065 64.6062 20.6208 60.3947C20.2015 59.7366 19.9833 58.928 20.6566 58.3561C21.2713 57.8339 21.6575 58.7584 22.2382 58.51C23.2381 58.0818 25.4823 57.3732 26.5493 57.4131ZM25.8243 52.3753C22.2363 52.6594 17.3027 52.8809 15.5266 56.4779C13.1405 61.309 17.2213 66.0405 21.9418 66.7754C26.4846 67.4831 33.2673 64.9667 33.6307 59.6685C33.9239 55.3968 29.8608 52.0477 25.8243 52.3753Z" fill="#89C5CC"/>
<path fill-rule="evenodd" clip-rule="evenodd" d="M55.781 54.9302C52.0665 54.9899 44.7654 53.8916 41.5292 55.7022C38.3269 57.4938 39.755 60.6839 42.6762 61.4472C44.6072 61.9514 47.7629 61.1376 49.7735 61.0556C52.4178 60.9481 55.0645 60.9249 57.7107 60.8883C62.1609 60.8285 66.6092 60.879 71.0598 60.879C75.6054 60.879 80.2287 61.0032 84.7664 60.6691C90.5078 60.2465 90.3533 55.9474 84.7384 55.4098C75.1997 54.4969 65.3505 54.7795 55.781 54.9302Z" fill="#89C5CC"/>
<path fill-rule="evenodd" clip-rule="evenodd" d="M46.2927 103.08C46.2927 105.122 48.1051 103.08 48.0921 103.08C48.1051 103.08 46.2927 101.037 46.2927 103.08Z" fill="#89C5CC"/>
<path fill-rule="evenodd" clip-rule="evenodd" d="M5.29707 86.637C5.41386 92.5742 5.49063 98.5171 5.74423 104.45C5.82472 106.326 5.2873 109.989 7.56125 110.945C10.092 112.01 10.8789 109.356 11.1706 107.558C12.0938 101.862 11.1888 95.358 11.0999 89.594C11.0701 87.6588 11.4889 84.9645 9.29079 83.9997C7.49796 83.2123 5.26077 84.674 5.29707 86.637Z" fill="#89C5CC"/>
<path fill-rule="evenodd" clip-rule="evenodd" d="M102.935 86.7303C103.085 87.0839 103.085 87.0839 102.935 86.7303V86.7303ZM103.147 86.6696C103.269 86.7206 103.76 86.9268 103.147 86.6696V86.6696ZM55.1834 81.8709C46.0685 82.0136 36.9481 82.1221 27.8392 82.5123C23.9516 82.6791 20.0193 82.8135 16.1452 83.1801C13.4013 83.4396 6.58452 83.5476 4.80472 85.79C1.13206 90.4186 8.92035 89.1563 10.5978 88.7804C13.6507 88.096 16.7668 87.8768 19.8858 87.7123C26.6532 87.3554 33.4234 87.1645 40.1992 87.0283C58.5736 86.6585 76.9616 86.7145 95.3398 86.6316C97.1191 86.6237 100.335 85.9082 101.978 86.6279C103.625 87.3494 103.532 89.1229 103.703 91.1823C103.93 93.922 102.123 99.1433 103.5 101.448C105.636 105.023 108.742 101.987 109.217 99.381C109.873 95.7798 108.833 91.4557 107.815 88.0135C106.379 83.1569 104.385 82.9636 99.6876 82.5841C94.1993 82.1406 88.7306 81.8718 83.2242 81.8209C73.8794 81.7351 64.5277 81.7259 55.1834 81.8709Z" fill="#89C5CC"/>
<path fill-rule="evenodd" clip-rule="evenodd" d="M91.2338 106.414C71.4644 108.71 51.1324 107.357 31.2573 107.438C26.4241 107.458 21.5868 107.497 16.7583 107.731C14.208 107.854 8.16273 107.151 6.41551 109.119C2.73261 113.266 9.36694 113.869 11.7889 113.698C16.6857 113.349 21.5943 113.191 26.5037 113.153C43.7963 113.019 61.1867 113.826 78.4654 112.973C85.7041 112.615 92.7814 111.377 99.8862 109.993C101.46 109.687 112.235 107.638 106.091 105.183C102.46 103.732 95.0484 105.969 91.2338 106.414Z" fill="#89C5CC"/>
<path fill-rule="evenodd" clip-rule="evenodd" d="M33.512 98.822C33.3743 98.999 33.3743 98.999 33.512 98.822V98.822ZM33.3794 98.7914C33.1873 99.2321 33.3324 98.9184 33.3794 98.7914V98.7914ZM32.1324 97.1829C32.1613 97.22 32.279 97.3706 32.1324 97.1829V97.1829ZM32.0845 97.1709C32.5605 97.739 32.8811 98.3729 33.0458 99.0722C28.9497 100.182 27.3714 96.8682 32.0845 97.1709ZM31.8253 97.0156C31.8267 97.0165 32.4028 97.2589 31.8253 97.0156V97.0156ZM25.0965 92.0789C22.4457 95.3802 20.2573 99.2275 23.5624 102.998C26.5176 106.37 32.4632 106.805 36.2136 104.554C40.077 102.235 39.7434 97.352 37.0484 94.1651C35.3132 92.1131 33.9066 92.1701 31.3889 91.8351C29.6747 91.6071 26.5511 90.2743 25.0965 92.0789Z" fill="#89C5CC"/>
<path fill-rule="evenodd" clip-rule="evenodd" d="M52.5002 98.1889C52.5002 102.585 71.4815 100.693 74.8582 100.688C77.6868 100.684 94.7905 102.244 93.563 97.7204C92.5543 94.0033 75.7069 95.8509 72.1189 95.8454C69.0177 95.8412 52.5002 93.7118 52.5002 98.1889Z" fill="#89C5CC"/>
</g>
</svg>
