<svg width="473" height="496" viewBox="0 0 473 496" fill="none" xmlns="http://www.w3.org/2000/svg">
<path fill-rule="evenodd" clip-rule="evenodd" d="M218.234 0.129779C260.005 -2.87189 285.117 47.0198 323.224 64.3912C370.493 85.939 445.343 66.9413 467.683 113.843C489.888 160.461 436.769 209.406 414.486 255.987C398.582 289.232 372.671 314.302 356.052 347.195C332.079 394.646 344.318 470.002 295.606 491.288C249.04 511.636 200.594 461.146 157.723 433.861C124.315 412.599 97.3115 384.472 75.6667 351.31C56.2863 321.617 50.7637 287.171 39.9394 253.405C26.6436 211.929 -13.8041 169.672 4.81726 130.299C23.5042 90.7877 85.1982 101.573 122.512 78.8142C158.502 56.8622 176.185 3.15131 218.234 0.129779Z" fill="url(#paint0_linear_2_226)"/>
<defs>
<linearGradient id="paint0_linear_2_226" x1="0" y1="248" x2="473" y2="248" gradientUnits="userSpaceOnUse">
<stop stop-color="#FBED96"/>
<stop offset="1" stop-color="#ABECD6"/>
</linearGradient>
</defs>
</svg>
