<svg width="400" height="402" viewBox="0 0 400 402" fill="none" xmlns="http://www.w3.org/2000/svg">
<path fill-rule="evenodd" clip-rule="evenodd" d="M239.474 43.3973C279.675 46.2846 320.297 1.78615 355.784 20.896C390.669 39.6822 392.418 90.0341 398.72 129.152C403.845 160.962 392.176 191.292 388.39 223.288C384.482 256.317 400.752 297.939 376.104 320.268C350.763 343.226 307.38 312.413 275.729 325.352C237.849 340.839 221.704 393.21 181.33 399.897C136.972 407.243 88.1237 392.069 54.7395 361.951C20.1194 330.717 -0.311645 282.934 0.00359543 236.308C0.304506 191.802 37.1134 158.382 56.3871 118.265C75.186 79.1347 71.7261 19.8118 111.908 3.38085C154.01 -13.8355 194.104 40.1389 239.474 43.3973Z" fill="url(#paint0_linear_2_308)"/>
<defs>
<linearGradient id="paint0_linear_2_308" x1="0" y1="200.864" x2="400" y2="200.864" gradientUnits="userSpaceOnUse">
<stop stop-color="#B993D6"/>
<stop offset="1" stop-color="#8CA6DB"/>
</linearGradient>
</defs>
</svg>
