<svg width="400" height="370" viewBox="0 0 400 370" fill="none" xmlns="http://www.w3.org/2000/svg">
<path fill-rule="evenodd" clip-rule="evenodd" d="M214.893 1.02321C238.003 -2.00425 262.118 1.78383 283.484 11.096C304.663 20.3263 319.181 39.4983 336.976 54.2315C355.418 69.5006 380.241 79.0733 391.26 100.33C402.272 121.573 400.968 147.525 397.621 171.217C394.486 193.416 373.482 210.6 372.523 232.999C371.224 263.309 401.64 292.803 391.192 321.285C381.95 346.479 349.682 356.253 324.211 364.703C300.059 372.716 274.067 368.315 248.622 368.583C226.08 368.821 203.492 371.624 181.609 366.208C160.145 360.896 143.331 344.785 122.501 337.368C96.8291 328.227 66.115 333.12 43.9914 317.209C21.9075 301.326 1.01937 276.469 0.0254076 249.285C-1.03808 220.2 31.5996 200.052 38.6754 171.821C44.5617 148.335 33.2899 123.658 37.4885 99.8127C42.2139 72.9757 41.6361 37.8614 64.7921 23.4965C90.0074 7.85414 123.582 32.593 152.928 28.1993C175.425 24.831 192.338 3.978 214.893 1.02321Z" fill="url(#paint0_linear_2_323)"/>
<defs>
<linearGradient id="paint0_linear_2_323" x1="0" y1="184.775" x2="400" y2="184.775" gradientUnits="userSpaceOnUse">
<stop stop-color="#FFB347"/>
<stop offset="1" stop-color="#FFCC33"/>
</linearGradient>
</defs>
</svg>
