<svg width="481" height="470" viewBox="0 0 481 470" fill="none" xmlns="http://www.w3.org/2000/svg">
<path fill-rule="evenodd" clip-rule="evenodd" d="M228.104 0.183591C263.49 -1.51406 300.045 8.59903 329.024 28.9752C356.947 48.6089 362.907 87.621 386.935 111.865C414.452 139.628 470.144 143.196 479.774 181.079C489.31 218.589 440.362 247.267 430.898 284.795C421.71 321.23 448.64 366.309 425.582 395.979C402.61 425.538 354.531 415.097 319.458 428.19C287.725 440.037 261.865 466.949 228.104 469.701C193.724 472.503 161.873 454.997 129.286 443.689C93.4959 431.271 50.2 428.814 26.0847 399.601C1.99212 370.415 5.84332 327.706 2.43048 290.017C-0.677053 255.699 -2.26468 221.247 6.92723 188.038C15.923 155.537 33.3049 126.307 54.91 100.412C76.2564 74.8274 102.902 55.1301 131.742 38.4399C162.033 20.9102 193.146 1.86073 228.104 0.183591Z" fill="url(#paint0_linear_2_210)"/>
<defs>
<linearGradient id="paint0_linear_2_210" x1="0" y1="235" x2="481" y2="235" gradientUnits="userSpaceOnUse">
<stop stop-color="#36D1DC"/>
<stop offset="1" stop-color="#5B86E5"/>
</linearGradient>
</defs>
</svg>
